<?xml version="1.0" encoding="utf-8"?>
<!-- Generator: Adobe Illustrator 21.0.0, SVG Export Plug-In . SVG Version: 6.00 Build 0)  -->
<svg version="1.1" id="图层_1" xmlns="http://www.w3.org/2000/svg" xmlns:xlink="http://www.w3.org/1999/xlink" x="0px" y="0px"
	 viewBox="0 0 1451.3 1451.3" style="enable-background:new 0 0 1451.3 1451.3;" xml:space="preserve">
<style type="text/css">
	.st0{fill:#F4F4F4;}
</style>
<g>
	<rect x="-4.8" y="-4.8" width="1456.2" height="1456.2"/>
	<path class="st0" d="M722.1,490.4c24.5-18.3,48.1-37.3,73.1-54.4c46-31.4,96.9-39.4,151.3-29.3c40.2,7.5,75.6,23.6,103.7,54.1
		c27.7,30.1,40.3,66.4,45.3,106.2c8.5,66.8-14,124.2-55.4,174.4c-24.1,29.3-51.4,56.1-78.7,82.7c-71.9,70.1-144.5,139.4-216.9,209.1
		c-14.8,14.3-28,14.2-42.8,0c-87.7-84.5-176-168.4-263-253.8c-40.8-40-73.8-86.3-84.8-143.8c-12.7-66.3-1.8-128.1,46.3-179.1
		c28.2-29.9,64.7-43.7,104.5-50.8c65.9-11.8,122.3,8.4,173.3,48.5C693.5,466.4,708.3,479,722.1,490.4z"/>
</g>
</svg>
